<svg width="93" height="93" viewBox="0 0 93 93" fill="none" xmlns="http://www.w3.org/2000/svg">
<path d="M67.36 67.8659L64.8667 64.395C64.4551 63.8132 64.0272 63.2436 63.5984 62.6744L62.3132 60.9646C61.8559 60.3625 61.4071 59.7511 60.9382 59.1558C60.4674 58.5621 59.9918 57.9731 59.5115 57.3888C58.8675 56.613 58.2301 55.8317 57.5797 55.0615L55.6052 52.7706C54.3016 51.2325 52.9412 49.7443 51.5986 48.2409L50.5885 47.1162L49.5589 46.0092L47.502 43.7934L46.9876 43.2397L46.4635 42.695L45.416 41.605L43.3244 39.4216L40.7039 36.7761C40.2661 36.3362 39.8341 35.8904 39.392 35.4548L38.0584 34.1554C37.1669 33.2916 36.2871 32.4154 35.387 31.5605L32.6737 29.009C29.0299 25.6355 25.3267 22.322 21.503 19.151C20.9309 18.6671 20.3663 18.1684 19.808 17.6651C19.2438 17.1687 18.6829 16.6751 18.1251 16.1843C17.062 15.2433 16.4771 14.5024 16.1986 13.9335C15.7922 13.1056 16.7027 13.2998 18.3573 14.4706C18.8801 14.8414 19.4168 15.2428 19.9507 15.6564C20.2161 15.8653 20.4825 16.075 20.7475 16.2836C21.0058 16.5006 21.2629 16.7165 21.5162 16.9294C22.6787 17.9147 23.8403 18.8993 25.001 19.8832C26.1473 20.8839 27.2986 21.8778 28.4546 22.8647C29.0373 23.3531 29.5997 23.8643 30.1729 24.3634L31.891 25.8622C33.0483 26.8486 34.172 27.8719 35.3158 28.8748C35.9448 29.4307 36.5966 29.9879 37.2263 30.5602C37.8499 31.1389 38.4605 31.7235 39.0263 32.313C40.8492 34.1799 42.6654 36.0619 44.5142 37.9144L47.2322 40.7467C47.6822 41.2213 48.138 41.6904 48.5796 42.1724L49.8915 43.6288L51.8418 45.7948C52.4846 46.5246 53.1277 47.2548 53.7712 47.9855L55.6987 50.1799C56.3256 50.9247 56.9521 51.6692 57.5784 52.4134C58.1326 53.0803 58.6952 53.74 59.2415 54.4132L60.8691 56.4417L62.4933 58.4722L64.0791 60.5326L65.6639 62.5931L67.2095 64.6831L68.754 66.7734C69.2663 67.4721 69.7499 68.1915 70.2494 68.8993C70.6449 69.4662 71.0274 70.0293 71.3968 70.5886C71.579 70.8695 71.7596 71.1477 71.9384 71.4234C72.1106 71.7038 72.2758 71.9849 72.4387 72.2633C73.0897 73.3773 73.6736 74.4683 74.1824 75.5205C74.6573 76.4839 74.372 76.591 73.5223 75.6806C73.3731 75.5187 73.223 75.3559 73.0722 75.1922C72.9243 75.0266 72.788 74.8517 72.6452 74.6801L71.7966 73.6336C71.2356 72.9269 70.6687 72.2127 70.1032 71.5005C69.1768 70.3278 68.2876 69.0798 67.394 67.8575C67.383 67.8603 67.3728 67.8627 67.36 67.8659Z" fill="#21A353"/>
<path d="M52.8737 58.2861C55.2977 59.6888 57.6458 61.2189 59.9079 62.8701C60.501 63.3143 61.0949 63.7592 61.6898 64.2048C62.2721 64.6645 62.8572 65.1198 63.4476 65.5652C65.9388 67.4994 68.3233 69.5595 70.6228 71.6976C72.9204 73.8385 75.1427 76.0481 77.3265 78.2875L75.5432 79.4612C75.3863 79.1027 75.2549 78.7336 75.1129 78.3688L74.9034 77.8201C74.8679 77.7289 74.8351 77.6366 74.7974 77.5463C74.7747 77.4498 74.7397 77.3583 74.7115 77.264C74.6499 77.0778 74.5973 76.8877 74.5283 76.7044L74.32 76.1551C74.1794 75.7896 74.0292 75.4281 73.8846 75.0644C72.0829 70.6107 70.2022 66.1892 68.359 61.7518C67.4295 59.5363 66.5202 57.3124 65.6092 55.0892L62.8753 48.42C62.3252 47.0788 61.8234 45.7024 61.3317 44.3562C60.8618 43.0666 60.6997 42.1728 60.7177 41.5692C60.7433 40.6907 61.4089 41.2885 62.2522 43.0443C62.7853 44.1554 63.3094 45.3941 63.7834 46.5752C64.8758 49.2943 65.9935 51.9987 67.1367 54.6884C67.7087 56.0336 68.288 57.3753 68.8747 58.7134C69.4559 60.054 70.0442 61.3916 70.6397 62.7263C71.2971 64.1995 72.0041 65.7231 72.5558 67.193C74.0296 71.0706 75.6345 74.9178 77.4423 78.6693C77.5413 78.8748 77.5641 79.1089 77.5065 79.3296C77.449 79.5504 77.3148 79.7435 77.1281 79.8745C76.9414 80.0055 76.7141 80.066 76.487 80.045C76.2598 80.024 76.0475 79.923 75.8879 79.76L75.848 79.7187C75.2433 79.0988 74.643 78.476 74.047 77.8502C71.4754 75.1652 68.7724 72.5919 66.007 70.1251C63.5532 67.9175 60.9719 65.8559 58.2763 63.951C55.5739 62.0564 52.7462 60.347 49.8127 58.8346C48.6333 58.2461 47.5103 57.6271 46.4229 57.0429C46.1528 56.8932 45.8867 56.7419 45.6248 56.589C45.4944 56.511 45.3649 56.4335 45.2361 56.3564C45.1061 56.2818 44.9768 56.2076 44.8484 56.134C44.3335 55.8414 43.8438 55.5236 43.3631 55.2247C42.4806 54.6715 42.6485 54.4098 43.8453 54.6463C44.0568 54.6892 44.2697 54.7323 44.4837 54.7757C44.696 54.8241 44.9007 54.8942 45.1109 54.9539C45.3199 55.0169 45.5296 55.0802 45.7402 55.1437C45.9483 55.2141 46.1572 55.2847 46.3647 55.3604C46.7794 55.5135 47.1959 55.6672 47.614 55.8215C48.0309 55.9784 48.45 56.1334 48.8559 56.3179C49.5281 56.6108 50.2003 56.9279 50.87 57.2557C51.5282 57.6073 52.1888 57.96 52.8453 58.3107L52.8737 58.2861Z" fill="#21A353"/>
</svg>
