<svg width="65" height="65" viewBox="0 0 65 65" fill="none" xmlns="http://www.w3.org/2000/svg">
<rect width="65" height="65" rx="32.5" fill="#9FF798"/>
<path d="M36.955 16.1301C36.955 15.4048 36.4459 14.8176 35.8164 14.8176H28.9852C28.3558 14.8176 27.8467 15.4048 27.8467 16.1301V22.6927H36.955V16.1301Z" fill="white"/>
<path d="M35.8161 14.8176H32.2461C32.8755 14.8176 33.3847 15.4049 33.3847 16.13V22.6926H36.9547V16.13C36.9547 15.4049 36.4455 14.8176 35.8161 14.8176Z" fill="#2E2D2D"/>
<path d="M42.7465 18.0618H22.2528C21.6234 18.0618 21.1143 18.6501 21.1143 19.3743V53.4998C21.1143 54.2265 21.6234 54.8124 22.2528 54.8124H42.7465C43.3759 54.8124 43.8851 54.2266 43.8851 53.4998V19.3743C43.8851 18.6501 43.3759 18.0618 42.7465 18.0618Z" fill="#3DBE34"/>
<path d="M42.7466 18.0618H37.3916C38.021 18.0618 38.5301 18.6501 38.5301 19.3743V53.4998C38.5301 54.2265 38.021 54.8124 37.3916 54.8124H42.7466C43.376 54.8124 43.8851 54.2265 43.8851 53.4998V19.3743C43.8851 18.6501 43.376 18.0618 42.7466 18.0618Z" fill="#2E2D2D"/>
<path d="M26.3574 36.9671L32.3136 27.4744L29.7078 35.8503H34.7333L27.6603 45.1568L31.383 36.9671H26.3574Z" fill="white"/>
</svg>
