<svg width="65" height="65" viewBox="0 0 65 65" fill="none" xmlns="http://www.w3.org/2000/svg">
<rect width="65" height="65" rx="32.5" fill="#9FF798"/>
<path d="M35.18 21.5065V15.021H29.3273V21.5065C28.7661 22.8791 28.2367 23.6649 26.1637 25.1446C24.046 27.2877 23.269 28.5844 23 31.1555V51.7192C23.5288 53.2808 24.1094 53.8003 25.5309 54.2501H39.1346C40.2482 53.4854 40.8253 53.0228 41.1909 51.7192V31.1555C40.8356 28.296 40.1003 27.0056 38.0273 25.1446C36.4436 24.1369 35.808 23.3469 35.18 21.5065Z" fill="#3DBE34"/>
<path d="M25.8473 43.1772V34.6354V32.8954C26.3986 29.4065 27.3295 28.0505 29.96 26.5682C31.3116 25.3266 31.713 24.5636 31.8582 23.0882V16.4445H29.4855C29.2653 16.352 29.3818 16.2216 29.3273 15.97V21.5063C28.632 23.1224 27.9335 23.6763 26.1636 25.1445C23.8279 27.2211 23.1025 28.5591 23 31.3136V50.77C24.1395 52.2341 24.7613 52.1717 25.8473 50.77V43.1772Z" fill="#85E87E"/>
<path d="M27.2713 31.7317C27.328 30.704 27.4053 30.27 28.0622 29.2008C28.1209 28.4023 28.0771 28.1418 26.9549 28.4099C26.1786 29.4008 25.9199 30.0162 25.8477 31.8899C26.5344 32.6141 26.836 32.5187 27.2713 31.7317Z" fill="white"/>
<circle cx="30.1181" cy="27.2008" r="0.790909" fill="white"/>
<path d="M27.8154 11.6991C28.033 11.258 28.2133 11.0383 28.7645 10.75H35.7245C36.1851 11.0701 36.669 11.3059 36.6736 11.6991V14.0718C36.4485 14.601 36.2367 14.8237 35.5663 15.0209H28.6063C28.2754 14.7513 28.0877 14.6093 27.8154 14.0718V13.6473V13.5973V13.5445V11.8573V11.6991Z" fill="#3DBE34"/>
<path d="M29.4851 12.3318L29.1688 13.4391C28.6131 13.9675 28.3007 14.0134 27.7451 13.4391V11.8573C27.9217 11.2069 28.1441 10.9473 28.8524 10.75H35.0215C35.5379 11.326 35.6144 11.6668 35.0215 12.3318H29.4851Z" fill="#85E87E"/>
<path d="M29.3271 16.0755V15.021H35.1799V16.0755C35.1027 16.3578 34.9988 16.471 34.6921 16.6028H29.8149C29.5192 16.5623 29.42 16.4335 29.3271 16.0755Z" fill="#2D8B27"/>
<rect x="25.8477" y="37.4827" width="1.58182" height="8.85818" rx="0.790909" fill="white"/>
</svg>
