<svg width="163" height="312" viewBox="0 0 163 312" fill="none" xmlns="http://www.w3.org/2000/svg">
<rect width="190.786" height="197.264" rx="14" transform="matrix(-0.923008 -0.38478 -0.38478 0.923008 163 129.411)" fill="#83FF00" fill-opacity="0.39"/>
<rect width="28.8419" height="26.9731" rx="5" transform="matrix(-0.923008 -0.38478 -0.38478 0.923008 163 94.0977)" fill="#83FF00" fill-opacity="0.39"/>
<rect width="19.4426" height="18.1828" rx="4" transform="matrix(-0.923008 -0.38478 -0.38478 0.923008 94 59.481)" fill="#83FF00" fill-opacity="0.39"/>
<rect width="22.0077" height="22.0077" rx="5" transform="matrix(-0.923008 -0.38478 -0.38478 0.923008 45 31.4683)" fill="#83FF00" fill-opacity="0.39"/>
<rect width="13.6467" height="13.6467" rx="2" transform="matrix(-0.923008 -0.38478 -0.38478 0.923008 74 10.251)" fill="#83FF00" fill-opacity="0.39"/>
<rect width="11.6163" height="11.6163" rx="1" transform="matrix(-0.923008 -0.38478 -0.38478 0.923008 116 4.46973)" fill="#83FF00" fill-opacity="0.39"/>
<rect width="18.0843" height="18.0843" rx="3" transform="matrix(-0.923008 -0.38478 -0.38478 0.923008 140 46.9585)" fill="#83FF00" fill-opacity="0.39"/>
</svg>
