<svg width="36" height="29" viewBox="0 0 36 29" fill="none" xmlns="http://www.w3.org/2000/svg">
<path d="M29.0335 1.17533C28.7844 1.16982 28.3707 1.11886 27.9185 1.16539C27.4639 1.20558 26.8359 1.2238 26.2516 1.39041C25.6573 1.54793 25.0045 1.7759 24.3113 2.07841C23.6432 2.39656 22.999 2.80895 22.3223 3.2882C21.6462 3.76658 21.0827 4.34921 20.484 4.9799C19.9075 5.616 19.4287 6.31831 18.9643 7.06139C18.5419 7.80711 18.172 8.59557 17.8657 9.40077C17.6018 10.2088 17.3477 11.0335 17.2238 11.8576C17.0862 12.6815 17.0105 13.5049 17.0346 14.3084C17.0432 15.9139 17.3835 17.4399 17.8511 18.7365C18.1015 19.3894 18.3705 19.9813 18.6632 20.5078C18.9445 21.0349 19.2775 21.4935 19.5417 21.8662C19.6586 22.0438 19.79 22.2062 19.9123 22.3474C19.9336 22.0861 19.9594 21.8092 19.99 21.5053C20.1462 20.006 20.4481 18.016 20.9461 16.0705C21.1927 15.0974 21.5059 14.1422 21.8308 13.2628C22.0154 12.8295 22.1945 12.4122 22.3629 12.0168C22.5602 11.6342 22.7459 11.2719 22.9158 10.939C23.1165 10.6211 23.2995 10.3318 23.4623 10.074C23.6119 9.80959 23.8005 9.61727 23.9305 9.44313C24.2014 9.10334 24.356 8.90945 24.356 8.90945C24.356 8.90945 24.2169 9.11602 23.9736 9.47433C23.8592 9.65891 23.6881 9.86094 23.5595 10.135C23.4194 10.4012 23.2615 10.7009 23.0885 11.028C22.9463 11.3706 22.7918 11.7389 22.6288 12.1296C22.4943 12.53 22.352 12.9526 22.2057 13.3899C21.9543 14.2798 21.7242 15.2337 21.5594 16.204C21.2208 18.1399 21.0818 20.1042 21.0442 21.5733C21.0339 21.987 21.0322 22.3539 21.0337 22.6768C21.234 22.5326 21.4932 22.362 21.7558 22.133C22.0922 21.8512 22.5398 21.5223 22.9495 21.1402C23.3738 20.7616 23.8177 20.3362 24.2546 19.8779C24.7014 19.4202 25.1174 18.9238 25.5406 18.4071C25.9637 17.892 26.3412 17.3431 26.7116 16.7854C27.0619 16.2188 27.4072 15.6498 27.6915 15.057C27.9661 14.4544 28.2553 13.8771 28.4602 13.2591C28.9063 12.0537 29.2114 10.8297 29.3716 9.59942C29.474 9.00963 29.4983 8.35915 29.5384 7.7644C29.5827 7.17245 29.5706 6.53896 29.5752 5.95201C29.5851 5.37379 29.5773 4.79472 29.5527 4.23712C29.5369 3.65923 29.5233 3.15541 29.5135 2.74088C29.5242 2.32075 29.4728 1.90535 29.4717 1.64971C29.453 1.36768 29.4419 1.21915 29.4419 1.21915C29.4419 1.21915 29.2943 1.1921 29.0335 1.17533Z" fill="#25A650"/>
<path d="M15.8225 19.1409C14.8493 18.8941 13.8948 18.5803 13.0149 18.2549C12.5832 18.0719 12.1652 17.8922 11.7693 17.7239C11.3861 17.5269 11.0255 17.3405 10.6907 17.1714C10.3738 16.9715 10.0841 16.7862 9.82595 16.6248C9.56144 16.4749 9.3706 16.286 9.19563 16.1563C8.85561 15.8865 8.66168 15.7309 8.66168 15.7309C8.66168 15.7309 8.86825 15.87 9.22766 16.113C9.41021 16.2278 9.61296 16.3983 9.88813 16.5265C10.1546 16.6674 10.454 16.8254 10.7814 16.9983C11.1231 17.1399 11.4923 17.295 11.8827 17.4569C12.2825 17.5916 12.7062 17.7335 13.1429 17.88C14.0312 18.1298 14.9867 18.3616 15.9565 18.5265C16.359 18.5978 16.7569 18.6437 17.1555 18.6947C16.5915 16.8808 16.2894 14.9906 16.2276 13.188C15.7622 12.9031 15.2948 12.6263 14.8085 12.3951C14.2059 12.1196 13.6302 11.8297 13.0108 11.6261C11.8048 11.1802 10.582 10.8749 9.35167 10.7138C8.76188 10.6114 8.11058 10.5874 7.51593 10.5476C6.92509 10.5029 6.29183 10.5139 5.70503 10.5105C5.12657 10.5017 4.54826 10.5098 3.99011 10.5346C3.41197 10.5489 2.90925 10.5621 2.49335 10.5724C2.07353 10.5625 1.65699 10.6134 1.40217 10.6142C1.12167 10.6336 0.972266 10.6441 0.972266 10.6441C0.972266 10.6441 0.943813 10.7938 0.92612 11.0547C0.921223 11.3028 0.870199 11.7172 0.916172 12.1696C0.956393 12.6227 0.974166 13.2512 1.14226 13.8351C1.29889 14.4304 1.52745 15.084 1.83068 15.7766C2.14697 16.4447 2.55867 17.0879 3.03888 17.7656C3.51843 18.4406 4.10055 19.0052 4.73089 19.6046C5.36681 20.179 6.06858 20.6581 6.81373 21.1229C7.55959 21.5465 8.34794 21.9162 9.15318 22.2234C9.95946 22.486 10.7857 22.7399 11.6114 22.8648C12.434 23.0029 13.2577 23.0788 14.0606 23.0539C15.6658 23.0463 17.1918 22.7058 18.4897 22.2383C18.5447 22.2174 18.5896 22.1937 18.6413 22.1722C18.1601 21.3214 17.7596 20.4185 17.4248 19.4862C16.8947 19.38 16.3646 19.2797 15.8225 19.1409Z" fill="#25A650"/>
</svg>
