<svg width="47" height="33" viewBox="0 0 47 33" fill="none" xmlns="http://www.w3.org/2000/svg">
<path d="M34.8018 0C36.8897 4.09975e-05 38.7428 0.396502 40.3604 1.19043C41.978 1.95516 43.2726 3.08887 44.2432 4.58887C45.2132 6.05906 45.7572 7.85199 45.875 9.96875L40.9795 10.3672C40.8912 8.5731 40.3748 7.1312 39.4336 6.04297C38.4631 4.95525 36.9487 4.4113 34.8906 4.41113C33.3319 4.41121 32.0507 4.83753 31.0508 5.69043C30.0513 6.51377 29.551 7.63184 29.5508 9.04297C29.5509 10.5722 30.0673 11.8099 31.0967 12.751C32.1261 13.662 33.5968 14.1162 35.5078 14.1162H38.1543V17.999H34.7129C32.8898 17.9991 31.4338 18.4257 30.3457 19.2783C29.2577 20.1017 28.7141 21.3669 28.7139 23.0723C28.7139 24.8076 29.2875 26.1622 30.4346 27.1328C31.5814 28.0735 33.0959 28.5438 34.9775 28.5439C36.948 28.5439 38.5373 28.0438 39.7432 27.0439C40.9489 26.0145 41.5973 24.4408 41.6855 22.3232L46.5811 23.1182C46.4339 26.1173 45.376 28.5137 43.4062 30.3076C41.4062 32.1017 38.6552 33.0009 35.1553 33.001C32.8611 33.001 30.8447 32.6183 29.1094 31.8535C27.5959 31.1723 26.366 30.2615 25.415 29.126V30.3535C25.4151 30.7063 25.4587 31.0593 25.5469 31.4121C25.6351 31.7352 25.84 31.9565 26.1631 32.0742V32.5586H20.7803C20.5748 32.2648 20.4134 31.9121 20.2959 31.501C20.2077 31.0892 20.1641 30.499 20.1641 29.7344V23.5596C20.1641 22.0595 19.9121 20.9394 19.4121 20.2041C18.9411 19.4701 17.9274 19.1026 16.3701 19.1025H5.25098V32.5586H0V0.395508H15.6641C18.9287 0.395592 21.4588 1.19109 23.2529 2.7793C24.0577 3.46741 24.6823 4.25991 25.1318 5.1543C25.3076 4.77159 25.5146 4.40486 25.7568 4.05762C26.6391 2.76375 27.8604 1.76443 29.4189 1.05859C30.9777 0.352734 32.7724 4.89163e-05 34.8018 0ZM25.4121 12.2852C25.185 12.8713 24.8938 13.424 24.5312 13.9404C23.59 15.2934 22.2655 16.2362 20.5596 16.7656C22.0008 17.0598 23.0608 17.4861 23.7373 18.0449C24.1418 18.3616 24.4601 18.7263 24.6963 19.1377C24.8329 18.9293 24.9813 18.7264 25.1406 18.5293C26.2582 17.1471 27.7575 16.2206 29.6396 15.75C27.9339 15.0735 26.6392 14.1015 25.7568 12.8369C25.6333 12.6556 25.5184 12.4716 25.4121 12.2852ZM5.25098 14.6895H14.9131C16.7071 14.6894 18.0754 14.2631 19.0166 13.4102C19.9869 12.5572 20.4736 11.3361 20.4736 9.74805C20.4734 8.16039 19.987 6.96874 19.0166 6.1748C18.0462 5.35172 16.6934 4.94161 14.959 4.94141H5.25098V14.6895Z" fill="#85E87E"/>
</svg>
