<svg width="65" height="65" viewBox="0 0 65 65" fill="none" xmlns="http://www.w3.org/2000/svg">
<rect width="65" height="65" rx="32.5" fill="#9FF798"/>
<path d="M30.2499 15.5928C30.2499 15.5928 25.2499 14.0928 27.2499 13.8276" stroke="#9C9C9C"/>
<path d="M41.75 14.5928H23.75V16.5928H41.75V14.5928Z" fill="url(#paint0_linear_189_304)"/>
<path d="M21.25 19.5928L23.75 16.5928H41.75L43.75 19.5928V49.5928H21.25V19.5928Z" fill="#3DBE34"/>
<path d="M22.75 51.5928L21.25 49.5928H43.75L42.75 51.5928H22.75Z" fill="url(#paint1_linear_189_304)"/>
<path d="M35.6232 23.2076C34.6873 22.812 33.6605 22.5933 32.577 22.5928C30.9517 22.5933 29.452 23.0851 28.2014 23.9289C26.9518 24.7732 25.9579 25.9706 25.3645 27.3739C24.9689 28.3091 24.75 29.3362 24.75 30.4196C24.7502 32.0449 25.242 33.5443 26.086 34.7955C26.93 36.045 28.1272 37.0393 29.5305 37.6321C30.4665 38.0282 31.493 38.2469 32.577 38.2469C34.2017 38.2464 35.7017 37.7546 36.9521 36.9109C38.2022 36.0666 39.1959 34.8697 39.7892 33.4664C40.1848 32.5301 40.4038 31.5037 40.4041 30.4196C40.4033 28.7955 39.9118 27.295 39.0677 26.0448C38.2236 24.7946 37.0262 23.801 35.6232 23.2076ZM35.0565 31.5208L35.642 34.9335L32.5769 33.3217L29.5118 34.9335L30.0971 31.5208L27.6176 29.1034L31.0444 28.6057L32.5769 25.5004L34.1095 28.6057L37.5362 29.1034L35.0565 31.5208Z" fill="white"/>
<path d="M28.6946 42.9715V42.9619C28.9627 42.8194 29.1299 42.5631 29.1299 42.1954C29.1299 41.6295 28.7628 41.2468 27.9662 41.2468H26.5141L26.4609 41.2984V44.7591L26.5141 44.8117H27.9502C28.7004 44.8117 29.1927 44.4817 29.1927 43.7842C29.1927 43.3703 28.9574 43.0715 28.6946 42.9715ZM27.3842 41.9751L27.4159 41.9445H27.7878C28.0705 41.9445 28.2124 42.0595 28.2124 42.3104C28.2124 42.5571 28.0657 42.6781 27.7878 42.6781H27.4159L27.3842 42.6469V41.9751ZM27.8352 44.1141H27.4159L27.3842 44.0829V43.3439L27.4159 43.3116H27.8352C28.1233 43.3116 28.2705 43.4643 28.2705 43.7104C28.2705 43.9733 28.1233 44.1141 27.8352 44.1141Z" fill="white"/>
<path d="M29.8378 41.2468L29.7852 41.2985V44.7591L29.8378 44.8117H32.1714L32.2236 44.7591V44.083L32.1714 44.0303H30.7397L30.7085 43.9991V43.4278L30.7397 43.3967H31.9145L31.9666 43.344V42.6834L31.9145 42.6303H30.7397L30.7085 42.599V42.0595L30.7397 42.0283H32.1714L32.2236 41.9751V41.2985L32.1714 41.2468H29.8378Z" fill="white"/>
<path d="M32.8627 41.2468L32.8105 41.2985V44.7591L32.8627 44.8117H35.1958L35.2484 44.7591V44.083L35.1958 44.0303H33.764L33.7328 43.9991V43.4278L33.764 43.3967H34.9389L34.9915 43.344V42.6834L34.9389 42.6303H33.764L33.7328 42.599V42.0595L33.764 42.0283H35.1958L35.2484 41.9751V41.2985L35.1958 41.2468H32.8627Z" fill="white"/>
<path d="M38.6253 42.3943C38.6253 41.724 38.1588 41.2468 37.3408 41.2468H35.8886L35.8359 41.2984V44.7591L35.8886 44.8117H36.7061L36.7582 44.7591V43.5745L36.7905 43.5428H37.1313L37.6708 44.7591L37.7499 44.8117H38.6565L38.6936 44.7488L38.0379 43.3907C38.4157 43.202 38.6253 42.8409 38.6253 42.3943ZM37.2828 42.7823H36.7905L36.7582 42.7517V42.0595L36.7905 42.0282H37.2828C37.545 42.0282 37.7026 42.1745 37.7026 42.405C37.7025 42.6355 37.545 42.7823 37.2828 42.7823Z" fill="white"/>
<defs>
<linearGradient id="paint0_linear_189_304" x1="23.75" y1="15.5928" x2="41.75" y2="15.5928" gradientUnits="userSpaceOnUse">
<stop stop-color="#D9D9D9"/>
<stop offset="1" stop-color="#737373"/>
</linearGradient>
<linearGradient id="paint1_linear_189_304" x1="21.25" y1="50.5928" x2="43.75" y2="50.5928" gradientUnits="userSpaceOnUse">
<stop stop-color="#D9D9D9"/>
<stop offset="1" stop-color="#737373"/>
</linearGradient>
</defs>
</svg>
