<svg width="65" height="65" viewBox="0 0 65 65" fill="none" xmlns="http://www.w3.org/2000/svg">
<rect width="65" height="65" rx="32.5" fill="#9FF798"/>
<path d="M28.4521 10.9297L28.9661 10.4079L35.3533 10.3594L35.8751 10.8733L35.9013 14.3258L35.5599 14.8463L35.3873 14.8477L29.1728 14.8948L28.4784 14.3822L28.4521 10.9297Z" fill="#3DBE34"/>
<path d="M29.1741 15.0674C29.1607 17.4613 28.6404 18.6952 27.1458 20.7798C25.5461 22.7782 25.0784 23.9184 25.1136 25.9743L25.1595 32.0162C26.5098 35.3721 26.7529 37.1666 25.7389 40.1257C25.4191 41.1358 25.2548 41.7185 25.2433 43.0643L25.3232 53.5945C26.4513 55.0036 27.059 55.0406 28.0853 53.5735C29.2063 52.2535 29.8324 52.2259 31.0199 53.5513C32.2098 54.9088 32.8722 54.9691 34.0409 53.5283C35.2291 52.1076 35.891 52.0079 37.0618 53.5054C38.1424 54.7835 38.7769 54.9411 39.9965 53.4831L39.9165 42.9529C39.8276 41.7928 39.705 41.148 39.2038 40.0235C38.1594 37.8896 38.2291 36.1327 39.6601 31.9062L39.6142 25.8643C39.5378 23.6957 39.0741 22.5565 37.5034 20.7012C36.066 19.0664 34.8934 17.4136 35.3873 14.8477M28.9661 10.4079L28.4521 10.9297L28.4784 14.3822L29.1728 14.8948L35.5599 14.8463L35.9013 14.3258L35.8751 10.8733L35.3533 10.3594L28.9661 10.4079Z" stroke="#3DBE34" stroke-width="3"/>
<rect x="25.7998" y="25.9692" width="13.2346" height="6.21472" transform="rotate(-0.434845 25.7998 25.9692)" fill="#21A353"/>
</svg>
