<svg width="164" height="416" viewBox="0 0 164 416" fill="none" xmlns="http://www.w3.org/2000/svg">
<path d="M-48.9756 56.7061C-48.4089 51.3357 -40.5911 51.3357 -40.0244 56.7061L-31.8701 133.986C-31.1496 140.815 -22.3929 143.165 -18.3496 137.615L27.4395 74.7646C30.6196 70.3995 37.3865 74.3148 35.1865 79.2471L3.54492 150.174C0.745434 156.449 7.15716 162.873 13.4375 160.085L84.5166 128.527C89.454 126.335 93.3576 133.112 88.9844 136.283L26.1016 181.876C20.5342 185.913 22.8817 194.689 29.7207 195.407L107.02 203.524C112.393 204.089 112.393 211.911 107.02 212.476L29.7207 220.593C22.8817 221.311 20.5342 230.087 26.1016 234.124L88.9844 279.717C93.3576 282.888 89.4541 289.665 84.5166 287.473L13.4375 255.915C7.15713 253.127 0.74543 259.551 3.54492 265.826L35.1865 336.753C37.3865 341.685 30.6196 345.6 27.4395 341.235L-18.3496 278.385C-22.3929 272.835 -31.1496 275.185 -31.8701 282.014L-40.0244 359.294C-40.5911 364.664 -48.4089 364.664 -48.9756 359.294L-57.1299 282.014C-57.8504 275.185 -66.6071 272.835 -70.6504 278.385L-116.439 341.235C-119.62 345.601 -126.387 341.685 -124.187 336.753L-92.5449 265.826C-89.7454 259.551 -96.1571 253.127 -102.438 255.915L-173.517 287.473C-178.454 289.665 -182.358 282.888 -177.984 279.717L-115.102 234.124C-109.534 230.087 -111.882 221.311 -118.721 220.593L-196.02 212.476C-201.393 211.911 -201.393 204.089 -196.02 203.524L-118.721 195.407C-111.882 194.689 -109.534 185.913 -115.102 181.876L-177.984 136.283C-182.358 133.112 -178.454 126.335 -173.517 128.527L-102.438 160.085C-96.1572 162.873 -89.7454 156.449 -92.5449 150.174L-124.187 79.2471C-126.386 74.3148 -119.62 70.3995 -116.439 74.7646L-70.6504 137.615C-66.6071 143.165 -57.8504 140.815 -57.1299 133.986L-48.9756 56.7061Z" stroke="#21A353" stroke-opacity="0.3" stroke-width="3"/>
</svg>
