<svg width="330" height="507" viewBox="0 0 330 507" fill="none" xmlns="http://www.w3.org/2000/svg">
<path d="M112.206 114.53L113.37 114.199L122.593 119.345L122.924 120.51L120.142 125.495L119.227 125.964L118.977 125.825L110.004 120.819L109.424 119.515L112.206 114.53Z" fill="#3DBE34"/>
<path d="M109.865 121.068C107.891 124.499 106.135 125.848 102.285 127.625C98.3529 129.192 96.7495 130.449 95.1214 133.434L90.254 142.158C89.4553 148.085 88.3397 150.864 84.4656 154.29C83.1809 155.481 82.4691 156.185 81.3536 158.11L72.8705 173.315C73.3418 176.262 74.1852 176.811 76.8586 175.54C79.5482 174.558 80.4709 175.029 81.096 177.904C81.6983 180.827 82.6014 181.455 85.458 180.338C88.3264 179.266 89.3594 179.663 89.82 182.772C90.33 185.492 91.1135 186.236 94.0574 185.136L102.541 169.931C103.36 168.19 103.71 167.163 103.908 165.137C104.149 161.217 105.683 158.748 111.192 153.839L116.059 145.115C117.72 141.935 117.983 139.919 117.24 135.969C116.508 132.445 116.172 129.111 118.977 125.825M113.37 114.199L112.206 114.53L109.424 119.515L110.004 120.819L119.227 125.964L120.142 125.495L122.924 120.51L122.593 119.345L113.37 114.199Z" stroke="#3DBE34" stroke-width="2"/>
<rect x="96.1113" y="133.986" width="21.8822" height="10.2754" transform="rotate(29.1584 96.1113 133.986)" fill="#21A353"/>
<path d="M135.07 214.499L136.533 214.446L145.877 223.46L145.928 224.975L141.222 230.203L140.01 230.5L139.758 230.256L130.667 221.486L130.363 219.727L135.07 214.499Z" fill="#3DBE34"/>
<path d="M130.432 221.747C127.122 225.327 124.671 226.442 119.635 227.45C114.565 228.179 112.319 229.228 109.545 232.369L101.308 241.518C98.6569 248.485 96.5439 251.528 91.0042 254.535C89.1515 255.599 88.1122 256.241 86.2459 258.248L71.89 274.194C71.5919 277.917 72.4236 278.837 75.9304 278.091C79.3728 277.702 80.3201 278.551 80.2233 282.233C80.0858 285.967 80.9651 287 84.6424 286.496C88.3208 286.051 89.4192 286.842 89.0616 290.76C88.8745 294.219 89.5794 295.358 93.3545 294.901L107.71 278.955C109.176 277.085 109.884 275.941 110.701 273.537C112.117 268.843 114.633 266.301 122.52 261.982L130.757 252.833C133.626 249.464 134.518 247.091 134.787 242.067C134.946 237.564 135.514 233.411 139.758 230.256M136.533 214.446L135.07 214.499L130.363 219.727L130.667 221.486L140.01 230.5L141.222 230.203L145.928 224.975L145.877 223.46L136.533 214.446Z" stroke="#3DBE34" stroke-width="2.76151"/>
<rect width="26.9" height="12.6625" transform="matrix(0.719682 0.694304 -0.669088 0.743183 110.548 233.336)" fill="#21A353"/>
<rect x="142.908" y="197.407" width="2.07113" height="19.2957" rx="1.03556" fill="#D9D9D9"/>
<rect x="71.7988" y="127.029" width="2.07113" height="37.2804" rx="1.03556" fill="#D9D9D9"/>
<ellipse cx="165" cy="496.5" rx="132" ry="10.5" fill="#606060"/>
<g clip-path="url(#clip0_279_233)">
<path d="M286 223.452H269.5C266.462 223.452 264 220.989 264 217.952C264 214.915 266.463 212.452 269.5 212.452H286V201.452H269.5C266.462 201.452 264 198.989 264 195.952C264 192.915 266.463 190.452 269.5 190.452H286C292.065 190.452 297 195.388 297 201.453V212.453C297 218.517 292.065 223.452 286 223.452Z" fill="#A3682D"/>
<path d="M195.893 498.452H112.107C95.2626 498.452 81.1209 485.765 79.3008 469.018L55 245.452H253L228.7 469.018C226.879 485.765 212.738 498.452 195.893 498.452Z" fill="#21A353"/>
<path d="M253 245.452H55L79.3001 469.018C81.1209 485.764 95.2619 498.452 112.107 498.452H126.5C109.655 498.452 95.5133 485.764 93.6931 469.018L72.4462 273.547C72.093 270.292 74.6414 267.453 77.9137 267.453H250.608L253 245.452Z" fill="#18783D"/>
<path d="M253 168.452H54.9998C42.8497 168.452 33 178.302 33 190.452V239.952C33 249.065 40.387 256.452 49.5 256.452H258.5C267.613 256.452 275 249.065 275 239.952V190.452C275 178.302 265.15 168.452 253 168.452Z" fill="#21A353"/>
<path d="M275 206.952H33V217.952H275V206.952Z" fill="#18783D"/>
<path d="M220 498.452C238.225 498.452 253 483.677 253 465.452C253 447.226 238.225 432.452 220 432.452C201.775 432.452 187 447.226 187 465.452C187 483.677 201.775 498.452 220 498.452Z" fill="#FFC552"/>
<path d="M220 487.452C232.15 487.452 242 477.602 242 465.452C242 453.302 232.15 443.452 220 443.452C207.85 443.452 198 453.302 198 465.452C198 477.602 207.85 487.452 220 487.452Z" fill="#FC9C47"/>
<path d="M220 476.452C226.075 476.452 231 471.527 231 465.452C231 459.377 226.075 454.452 220 454.452C213.925 454.452 209 459.377 209 465.452C209 471.527 213.925 476.452 220 476.452Z" fill="#C09350"/>
<path d="M211.459 370.073L201.853 350.86C200.494 348.143 197.19 347.042 194.475 348.4C191.758 349.758 190.657 353.062 192.015 355.779L201.621 374.992C203.431 378.611 200.731 382.952 196.702 382.952H167.279C168.261 381.97 169.416 381.025 170.004 379.741C170.949 377.674 170.497 375.17 168.89 373.563C166.742 371.415 163.26 371.415 161.112 373.563L150.112 384.562C147.964 386.71 147.964 390.192 150.112 392.34L161.112 403.34C163.232 405.459 166.771 405.459 168.89 403.34C171.038 401.193 171.038 397.71 168.89 395.563L167.279 393.952H196.702C202.462 393.952 207.709 391.026 210.738 386.127C213.766 381.226 214.036 375.225 211.459 370.073Z" fill="#85E87E"/>
<path d="M136.298 382.952H111.299C107.27 382.952 104.57 378.611 106.38 374.992L126.066 335.62C126.311 336.6 126.49 337.629 126.838 338.58C127.463 340.287 128.935 341.598 130.7 342.029C134.656 342.995 138.322 339.287 137.337 335.349L133.564 320.258C132.548 316.19 127.879 315.254 124.464 316.864L111.803 320.029C108.856 320.766 107.064 323.752 107.802 326.699C108.332 328.822 110.128 330.462 112.289 330.8C113.719 331.024 115.107 330.542 116.479 330.2L96.5422 370.074C93.9661 375.226 94.2361 381.227 97.2641 386.127C100.292 391.027 105.539 393.953 111.299 393.953H136.298C139.335 393.953 141.797 391.49 141.797 388.453C141.797 385.415 139.335 382.952 136.298 382.952Z" fill="#85E87E"/>
<path d="M195.209 317.804C192.265 317.07 189.277 318.859 188.54 321.806L188.136 323.424L168.758 284.67C165.945 279.044 160.291 275.549 154.001 275.549C147.71 275.549 142.056 279.044 139.243 284.67L129.935 303.286C128.576 306.003 129.677 309.307 132.393 310.666C135.111 312.026 138.414 310.924 139.773 308.206L149.081 289.589C151.074 285.602 156.926 285.602 158.92 289.589L179.021 329.792L176.345 329.123C173.399 328.388 170.412 330.178 169.675 333.124C168.938 336.072 170.729 339.057 173.676 339.795L188.767 343.568C191.676 344.293 194.71 342.475 195.437 339.566L199.21 324.474C199.949 321.527 198.157 318.541 195.209 317.804Z" fill="#85E87E"/>
<path d="M254.216 165.636H56.2161C45.9648 165.636 37.352 172.647 34.9092 182.136H275.522C273.081 172.647 264.467 165.636 254.216 165.636Z" fill="#9FF798"/>
<path d="M162.102 343.117C163.543 343.117 164.822 343.39 165.938 343.938C167.055 344.466 167.95 345.249 168.62 346.285C169.29 347.3 169.665 348.538 169.746 349.999L166.366 350.274C166.305 349.036 165.949 348.04 165.3 347.289C164.63 346.538 163.584 346.162 162.163 346.162C161.087 346.162 160.202 346.456 159.512 347.045C158.822 347.613 158.477 348.386 158.477 349.36C158.477 350.416 158.833 351.27 159.544 351.92C160.255 352.549 161.27 352.862 162.589 352.862H164.416V355.543H162.04C160.782 355.543 159.777 355.837 159.025 356.426C158.274 356.994 157.899 357.868 157.898 359.046C157.898 360.244 158.294 361.179 159.086 361.849C159.878 362.499 160.924 362.823 162.223 362.823C163.583 362.823 164.68 362.478 165.513 361.788C166.345 361.077 166.793 359.991 166.854 358.529L170.233 359.077C170.132 361.148 169.401 362.802 168.041 364.041C166.66 365.279 164.762 365.9 162.346 365.9C160.762 365.9 159.37 365.636 158.172 365.108C157.127 364.638 156.278 364.008 155.621 363.224V364.072C155.621 364.315 155.651 364.559 155.712 364.802C155.773 365.026 155.914 365.179 156.138 365.26V365.594H152.422C152.28 365.392 152.168 365.148 152.087 364.864C152.026 364.58 151.996 364.172 151.996 363.644V359.382C151.996 358.346 151.823 357.573 151.478 357.065C151.152 356.558 150.451 356.305 149.376 356.305H141.7V365.594H138.075V343.39H148.89C151.143 343.391 152.889 343.939 154.128 345.036C154.684 345.511 155.115 346.058 155.426 346.676C155.547 346.411 155.69 346.158 155.857 345.919C156.467 345.025 157.31 344.335 158.386 343.847C159.462 343.36 160.701 343.117 162.102 343.117ZM155.619 351.598C155.462 352.003 155.261 352.384 155.011 352.741C154.361 353.675 153.447 354.326 152.27 354.691C153.264 354.894 153.996 355.189 154.463 355.575C154.742 355.793 154.962 356.045 155.125 356.329C155.219 356.185 155.322 356.045 155.432 355.909C156.203 354.955 157.239 354.316 158.538 353.991C157.36 353.524 156.467 352.852 155.857 351.979C155.772 351.854 155.692 351.727 155.619 351.598ZM141.7 353.259H148.37C149.609 353.259 150.554 352.964 151.204 352.375C151.874 351.786 152.21 350.943 152.21 349.846C152.21 348.751 151.874 347.928 151.204 347.38C150.534 346.811 149.6 346.528 148.402 346.528H141.7V353.259Z" fill="#85E87E"/>
</g>
<g clip-path="url(#clip1_279_233)">
<path d="M155.14 33.8404C155.036 32.874 154.273 32.1651 153.434 32.2559L144.332 33.2413C143.494 33.3321 142.9 34.1879 143.005 35.1542L143.951 43.898L156.087 42.5842L155.14 33.8404Z" fill="#A3A3A3"/>
<path d="M153.433 32.2558L148.677 32.7708C149.515 32.68 150.278 33.3889 150.383 34.3551L151.33 43.0988L156.086 42.5838L155.14 33.8401C155.035 32.874 154.272 32.165 153.433 32.2558Z" fill="black"/>
<path d="M163.135 35.5789L135.83 38.535C134.992 38.6258 134.398 39.4831 134.503 40.4479L139.425 85.9154C139.53 86.8836 140.293 87.5907 141.132 87.4999L168.436 84.5438C169.275 84.453 169.869 83.5991 169.764 82.6308L164.842 37.1634C164.737 36.1984 163.974 35.4881 163.135 35.5789Z" fill="#3DBE34"/>
<path d="M163.136 35.5786L156.001 36.3511C156.84 36.2603 157.603 36.9707 157.707 37.9356L162.63 83.403C162.735 84.3712 162.141 85.2253 161.302 85.3161L168.437 84.5437C169.275 84.4529 169.869 83.5987 169.764 82.6305L164.842 37.1632C164.738 36.1982 163.974 35.4879 163.136 35.5786Z" fill="black"/>
<path d="M144.027 63.1311L150.593 49.6242L148.329 61.1598L155.025 60.4349L146.944 73.8548L150.722 62.4062L144.027 63.1311Z" fill="white"/>
<rect x="166.381" y="18.6401" width="2.07113" height="18.6402" rx="1.03556" fill="#D9D9D9"/>
</g>
<rect x="129.791" width="2.07113" height="37.2803" rx="1.03557" fill="#D9D9D9"/>
<path d="M211.878 99.0634L206.383 87.7769L196.198 92.7358L201.693 104.022C201.879 106.886 201.624 108.703 199.27 113.034C197.4 118.558 197.147 121.473 198.857 126.175L216.28 161.962C218.523 164.231 219.973 164.643 222.828 164.222L246.501 152.696C247.791 150.422 248.404 149.128 247.936 146.549L230.514 110.763C227.472 106.087 225.1 104.465 219.915 102.982C216.306 102.571 214.53 101.734 211.878 99.0634Z" fill="#3DBE34"/>
<path d="M213.998 144.684L206.761 129.819L205.287 126.791C203.29 120.252 203.762 117.103 207.083 112.295C208.383 108.989 208.436 107.321 207.438 104.63L201.809 93.0687L197.68 95.079C197.219 95.1046 197.311 94.7789 197.003 94.3872L201.694 104.022C201.853 107.423 201.107 108.979 199.271 113.034C196.965 118.627 196.837 121.57 198.992 126.45L215.476 160.31C218.699 161.892 219.729 161.257 220.431 157.897L213.998 144.684Z" fill="#85E87E"/>
<path d="M206.778 123.559C206.006 121.723 205.773 120.902 206.011 118.485C205.436 117.045 205.139 116.629 203.414 118.046C202.902 120.429 202.973 121.719 204.435 125.041C206.244 125.719 206.688 125.298 206.778 123.559Z" fill="white"/>
<ellipse cx="1.53082" cy="1.53085" rx="1.53082" ry="1.53085" transform="matrix(0.899098 -0.437747 0.437722 0.89911 205.848 112.556)" fill="white"/>
<path d="M190.754 88.2352C190.759 87.2831 190.887 86.7482 191.602 85.7794L203.714 79.8824C204.786 80.0492 205.828 80.0496 206.169 80.7299L208.18 84.8591C208.236 85.9708 208.056 86.5378 207.057 87.449L194.945 93.346C194.141 93.1573 193.694 93.069 192.765 92.3644L192.405 91.6256L192.363 91.5385L192.318 91.4467L190.888 88.5105L190.754 88.2352Z" fill="#3DBE34"/>
<path d="M194.195 87.9219L194.583 90.1169C194.064 91.5073 193.559 91.8518 192.105 91.3231L190.765 88.5703C190.522 87.2888 190.689 86.6487 191.754 85.7052L202.49 80.4783C203.876 81.0431 204.298 81.5714 203.83 83.2311L194.195 87.9219Z" fill="#85E87E"/>
<path d="M197.092 94.5706L196.198 92.7354L206.383 87.7765L207.277 89.6117C207.382 90.1683 207.297 90.4534 206.875 90.9426L198.387 95.0749C197.838 95.255 197.556 95.1148 197.092 94.5706Z" fill="#2D8B27"/>
<rect width="3.06164" height="17.1455" rx="1.53082" transform="matrix(0.899098 -0.437747 0.437722 0.89911 209.173 134.774)" fill="white"/>
<rect x="247.845" y="91.8203" width="2.07109" height="37.281" rx="1.03555" fill="#D9D9D9"/>
<rect x="227.824" y="86.9878" width="1.38073" height="13.1174" rx="0.690364" fill="#D9D9D9"/>
<defs>
<clipPath id="clip0_279_233">
<rect width="330" height="330" fill="white" transform="translate(0 168.452)"/>
</clipPath>
<clipPath id="clip1_279_233">
<rect width="68.3473" height="68.3473" fill="white" transform="translate(113.912 25.9968) rotate(-6.17897)"/>
</clipPath>
</defs>
</svg>
